<svg viewBox="0 0 928 928" width="928" height="928" x="0" y="0" xmlns="http://www.w3.org/2000/svg"><defs><pattern id="pattern" x="0" y="0" width="8" height="8" patternUnits="userSpaceOnUse"><polygon points="0,4 0,8 8,0 4,0" fill="#ffffff"></polygon><polygon points="4,8 8,8 8,4" fill="#ffffff"></polygon></pattern><mask id="grating" x="0" y="0" width="1" height="1"><rect x="0" y="0" width="100%" height="100%" fill="url(#pattern)"></rect></mask></defs><g id="horizStripes"><rect fill="#006818" height="48" width="100%" x="0" y="0"></rect><rect fill="#C80000" height="16" width="100%" x="0" y="48"></rect><rect fill="#006818" height="16" width="100%" x="0" y="64"></rect><rect fill="#C80000" height="24" width="100%" x="0" y="80"></rect><rect fill="#006818" height="88" width="100%" x="0" y="104"></rect><rect fill="#FCFCFC" height="16" width="100%" x="0" y="192"></rect><rect fill="#101010" height="88" width="100%" x="0" y="208"></rect><rect fill="#C80000" height="16" width="100%" x="0" y="296"></rect><rect fill="#2C2C80" height="96" width="100%" x="0" y="312"></rect><rect fill="#C80000" height="24" width="100%" x="0" y="408"></rect><rect fill="#2C2C80" height="16" width="100%" x="0" y="432"></rect><rect fill="#C80000" height="16" width="100%" x="0" y="448"></rect><rect fill="#2C2C80" height="48" width="100%" x="0" y="464"></rect><rect fill="#C80000" height="16" width="100%" x="0" y="512"></rect><rect fill="#2C2C80" height="16" width="100%" x="0" y="528"></rect><rect fill="#C80000" height="24" width="100%" x="0" y="544"></rect><rect fill="#2C2C80" height="96" width="100%" x="0" y="568"></rect><rect fill="#C80000" height="16" width="100%" x="0" y="664"></rect><rect fill="#101010" height="88" width="100%" x="0" y="680"></rect><rect fill="#FCFCFC" height="16" width="100%" x="0" y="768"></rect><rect fill="#006818" height="88" width="100%" x="0" y="784"></rect><rect fill="#C80000" height="24" width="100%" x="0" y="872"></rect><rect fill="#006818" height="16" width="100%" x="0" y="896"></rect><rect fill="#C80000" height="16" width="100%" x="0" y="912"></rect></g><g id="vertStripes" mask="url(#grating)"><rect fill="#006818" height="100%" width="48" x="0" y="0"></rect><rect fill="#C80000" height="100%" width="16" x="48" y="0"></rect><rect fill="#006818" height="100%" width="16" x="64" y="0"></rect><rect fill="#C80000" height="100%" width="24" x="80" y="0"></rect><rect fill="#006818" height="100%" width="88" x="104" y="0"></rect><rect fill="#FCFCFC" height="100%" width="16" x="192" y="0"></rect><rect fill="#101010" height="100%" width="88" x="208" y="0"></rect><rect fill="#C80000" height="100%" width="16" x="296" y="0"></rect><rect fill="#2C2C80" height="100%" width="96" x="312" y="0"></rect><rect fill="#C80000" height="100%" width="24" x="408" y="0"></rect><rect fill="#2C2C80" height="100%" width="16" x="432" y="0"></rect><rect fill="#C80000" height="100%" width="16" x="448" y="0"></rect><rect fill="#2C2C80" height="100%" width="48" x="464" y="0"></rect><rect fill="#C80000" height="100%" width="16" x="512" y="0"></rect><rect fill="#2C2C80" height="100%" width="16" x="528" y="0"></rect><rect fill="#C80000" height="100%" width="24" x="544" y="0"></rect><rect fill="#2C2C80" height="100%" width="96" x="568" y="0"></rect><rect fill="#C80000" height="100%" width="16" x="664" y="0"></rect><rect fill="#101010" height="100%" width="88" x="680" y="0"></rect><rect fill="#FCFCFC" height="100%" width="16" x="768" y="0"></rect><rect fill="#006818" height="100%" width="88" x="784" y="0"></rect><rect fill="#C80000" height="100%" width="24" x="872" y="0"></rect><rect fill="#006818" height="100%" width="16" x="896" y="0"></rect><rect fill="#C80000" height="100%" width="16" x="912" y="0"></rect></g></svg>