<svg viewBox="0 0 1728 1728" width="1728" height="1728" x="0" y="0" xmlns="http://www.w3.org/2000/svg"><defs><pattern id="pattern" x="0" y="0" width="8" height="8" patternUnits="userSpaceOnUse"><polygon points="0,4 0,8 8,0 4,0" fill="#ffffff"></polygon><polygon points="4,8 8,8 8,4" fill="#ffffff"></polygon></pattern><mask id="grating" x="0" y="0" width="1" height="1"><rect x="0" y="0" width="100%" height="100%" fill="url(#pattern)"></rect></mask></defs><g id="horizStripes"><rect fill="#2C2C80" height="64" width="100%" x="0" y="0"></rect><rect fill="#101010" height="72" width="100%" x="0" y="64"></rect><rect fill="#2C2C80" height="88" width="100%" x="0" y="136"></rect><rect fill="#101010" height="8" width="100%" x="0" y="224"></rect><rect fill="#FCFCFC" height="16" width="100%" x="0" y="232"></rect><rect fill="#101010" height="8" width="100%" x="0" y="248"></rect><rect fill="#2C2C80" height="88" width="100%" x="0" y="256"></rect><rect fill="#101010" height="72" width="100%" x="0" y="344"></rect><rect fill="#006818" height="56" width="100%" x="0" y="416"></rect><rect fill="#C80000" height="8" width="100%" x="0" y="472"></rect><rect fill="#006818" height="16" width="100%" x="0" y="480"></rect><rect fill="#C80000" height="8" width="100%" x="0" y="496"></rect><rect fill="#006818" height="8" width="100%" x="0" y="504"></rect><rect fill="#101010" height="8" width="100%" x="0" y="512"></rect><rect fill="#E8C000" height="16" width="100%" x="0" y="520"></rect><rect fill="#101010" height="8" width="100%" x="0" y="536"></rect><rect fill="#006818" height="24" width="100%" x="0" y="544"></rect><rect fill="#C80000" height="16" width="100%" x="0" y="568"></rect><rect fill="#006818" height="48" width="100%" x="0" y="584"></rect><rect fill="#C80000" height="8" width="100%" x="0" y="632"></rect><rect fill="#006818" height="48" width="100%" x="0" y="640"></rect><rect fill="#101010" height="64" width="100%" x="0" y="688"></rect><rect fill="#2C2C80" height="48" width="100%" x="0" y="752"></rect><rect fill="#C80000" height="192" width="100%" x="0" y="800"></rect><rect fill="#2C2C80" height="48" width="100%" x="0" y="992"></rect><rect fill="#101010" height="64" width="100%" x="0" y="1040"></rect><rect fill="#006818" height="48" width="100%" x="0" y="1104"></rect><rect fill="#C80000" height="8" width="100%" x="0" y="1152"></rect><rect fill="#006818" height="48" width="100%" x="0" y="1160"></rect><rect fill="#C80000" height="16" width="100%" x="0" y="1208"></rect><rect fill="#006818" height="24" width="100%" x="0" y="1224"></rect><rect fill="#101010" height="8" width="100%" x="0" y="1248"></rect><rect fill="#E8C000" height="16" width="100%" x="0" y="1256"></rect><rect fill="#101010" height="8" width="100%" x="0" y="1272"></rect><rect fill="#006818" height="8" width="100%" x="0" y="1280"></rect><rect fill="#C80000" height="8" width="100%" x="0" y="1288"></rect><rect fill="#006818" height="16" width="100%" x="0" y="1296"></rect><rect fill="#C80000" height="8" width="100%" x="0" y="1312"></rect><rect fill="#006818" height="56" width="100%" x="0" y="1320"></rect><rect fill="#101010" height="72" width="100%" x="0" y="1376"></rect><rect fill="#2C2C80" height="88" width="100%" x="0" y="1448"></rect><rect fill="#101010" height="8" width="100%" x="0" y="1536"></rect><rect fill="#FCFCFC" height="16" width="100%" x="0" y="1544"></rect><rect fill="#101010" height="8" width="100%" x="0" y="1560"></rect><rect fill="#2C2C80" height="88" width="100%" x="0" y="1568"></rect><rect fill="#101010" height="72" width="100%" x="0" y="1656"></rect></g><g id="vertStripes" mask="url(#grating)"><rect fill="#2C2C80" height="100%" width="64" x="0" y="0"></rect><rect fill="#101010" height="100%" width="72" x="64" y="0"></rect><rect fill="#2C2C80" height="100%" width="88" x="136" y="0"></rect><rect fill="#101010" height="100%" width="8" x="224" y="0"></rect><rect fill="#FCFCFC" height="100%" width="16" x="232" y="0"></rect><rect fill="#101010" height="100%" width="8" x="248" y="0"></rect><rect fill="#2C2C80" height="100%" width="88" x="256" y="0"></rect><rect fill="#101010" height="100%" width="72" x="344" y="0"></rect><rect fill="#006818" height="100%" width="56" x="416" y="0"></rect><rect fill="#C80000" height="100%" width="8" x="472" y="0"></rect><rect fill="#006818" height="100%" width="16" x="480" y="0"></rect><rect fill="#C80000" height="100%" width="8" x="496" y="0"></rect><rect fill="#006818" height="100%" width="8" x="504" y="0"></rect><rect fill="#101010" height="100%" width="8" x="512" y="0"></rect><rect fill="#E8C000" height="100%" width="16" x="520" y="0"></rect><rect fill="#101010" height="100%" width="8" x="536" y="0"></rect><rect fill="#006818" height="100%" width="24" x="544" y="0"></rect><rect fill="#C80000" height="100%" width="16" x="568" y="0"></rect><rect fill="#006818" height="100%" width="48" x="584" y="0"></rect><rect fill="#C80000" height="100%" width="8" x="632" y="0"></rect><rect fill="#006818" height="100%" width="48" x="640" y="0"></rect><rect fill="#101010" height="100%" width="64" x="688" y="0"></rect><rect fill="#2C2C80" height="100%" width="48" x="752" y="0"></rect><rect fill="#C80000" height="100%" width="192" x="800" y="0"></rect><rect fill="#2C2C80" height="100%" width="48" x="992" y="0"></rect><rect fill="#101010" height="100%" width="64" x="1040" y="0"></rect><rect fill="#006818" height="100%" width="48" x="1104" y="0"></rect><rect fill="#C80000" height="100%" width="8" x="1152" y="0"></rect><rect fill="#006818" height="100%" width="48" x="1160" y="0"></rect><rect fill="#C80000" height="100%" width="16" x="1208" y="0"></rect><rect fill="#006818" height="100%" width="24" x="1224" y="0"></rect><rect fill="#101010" height="100%" width="8" x="1248" y="0"></rect><rect fill="#E8C000" height="100%" width="16" x="1256" y="0"></rect><rect fill="#101010" height="100%" width="8" x="1272" y="0"></rect><rect fill="#006818" height="100%" width="8" x="1280" y="0"></rect><rect fill="#C80000" height="100%" width="8" x="1288" y="0"></rect><rect fill="#006818" height="100%" width="16" x="1296" y="0"></rect><rect fill="#C80000" height="100%" width="8" x="1312" y="0"></rect><rect fill="#006818" height="100%" width="56" x="1320" y="0"></rect><rect fill="#101010" height="100%" width="72" x="1376" y="0"></rect><rect fill="#2C2C80" height="100%" width="88" x="1448" y="0"></rect><rect fill="#101010" height="100%" width="8" x="1536" y="0"></rect><rect fill="#FCFCFC" height="100%" width="16" x="1544" y="0"></rect><rect fill="#101010" height="100%" width="8" x="1560" y="0"></rect><rect fill="#2C2C80" height="100%" width="88" x="1568" y="0"></rect><rect fill="#101010" height="100%" width="72" x="1656" y="0"></rect></g></svg>