<svg viewBox="0 0 600 600" width="600" height="600" x="0" y="0" xmlns="http://www.w3.org/2000/svg"><defs><pattern id="pattern" x="0" y="0" width="8" height="8" patternUnits="userSpaceOnUse"><polygon points="0,4 0,8 8,0 4,0" fill="#ffffff"></polygon><polygon points="4,8 8,8 8,4" fill="#ffffff"></polygon></pattern><mask id="grating" x="0" y="0" width="1" height="1"><rect x="0" y="0" width="100%" height="100%" fill="url(#pattern)"></rect></mask></defs><g id="horizStripes"><rect fill="#006818" height="24" width="100%" x="0" y="0"></rect><rect fill="#202060" height="40" width="100%" x="0" y="24"></rect><rect fill="#E8C000" height="24" width="100%" x="0" y="64"></rect><rect fill="#202060" height="40" width="100%" x="0" y="88"></rect><rect fill="#C80000" height="24" width="100%" x="0" y="128"></rect><rect fill="#202060" height="40" width="100%" x="0" y="152"></rect><rect fill="#2888C4" height="24" width="100%" x="0" y="192"></rect><rect fill="#202060" height="72" width="100%" x="0" y="216"></rect><rect fill="#101010" height="240" width="100%" x="0" y="288"></rect><rect fill="#202060" height="72" width="100%" x="0" y="528"></rect></g><g id="vertStripes" mask="url(#grating)"><rect fill="#006818" height="100%" width="24" x="0" y="0"></rect><rect fill="#202060" height="100%" width="40" x="24" y="0"></rect><rect fill="#E8C000" height="100%" width="24" x="64" y="0"></rect><rect fill="#202060" height="100%" width="40" x="88" y="0"></rect><rect fill="#C80000" height="100%" width="24" x="128" y="0"></rect><rect fill="#202060" height="100%" width="40" x="152" y="0"></rect><rect fill="#2888C4" height="100%" width="24" x="192" y="0"></rect><rect fill="#202060" height="100%" width="72" x="216" y="0"></rect><rect fill="#101010" height="100%" width="240" x="288" y="0"></rect><rect fill="#202060" height="100%" width="72" x="528" y="0"></rect></g></svg>